<svg xmlns="http://www.w3.org/2000/svg" xmlns:xlink="http://www.w3.org/1999/xlink" version="1.1" x="0px" y="0px" viewBox="0 0 100 125" enable-background="new 0 0 100 100" xml:space="preserve"><g><path fill="#000000" d="M49.906,94.931l7.461-12.454c0.32-0.072,0.644-0.134,0.962-0.217c11.7-3.041,20.858-12.199,23.9-23.899   c0.083-0.318,0.145-0.642,0.218-0.962l12.459-7.468l-12.459-7.468c-0.073-0.32-0.135-0.644-0.218-0.962   C79.188,29.803,70.03,20.646,58.333,17.603c-0.318-0.083-0.642-0.145-0.962-0.218L49.906,4.931l-7.464,12.454   c-0.321,0.073-0.645,0.135-0.963,0.218c-11.697,3.043-20.854,12.2-23.896,23.898c-0.083,0.318-0.145,0.642-0.218,0.963   L4.906,49.931l12.459,7.467c0.073,0.321,0.135,0.645,0.218,0.963c3.043,11.7,12.201,20.858,23.901,23.899   c0.317,0.083,0.641,0.145,0.961,0.217L49.906,94.931z M19.519,57.856c-1.342-5.154-1.342-10.697,0-15.852   c2.86-10.998,11.469-19.606,22.465-22.467c2.578-0.67,5.244-1.01,7.923-1.01c2.68,0,5.346,0.34,7.923,1.01   c10.997,2.86,19.605,11.469,22.465,22.467c0.671,2.577,1.011,5.244,1.011,7.926s-0.34,5.349-1.011,7.926   c-2.86,11-11.47,19.609-22.468,22.468c-2.575,0.669-5.239,1.009-7.92,1.009c-2.68,0-5.345-0.34-7.919-1.009   C30.988,77.466,22.379,68.856,19.519,57.856z"/><path fill="#000000" d="M70.707,49.931c0-11.468-9.331-20.798-20.801-20.798s-20.801,9.33-20.801,20.798   s9.331,20.798,20.801,20.798S70.707,61.398,70.707,49.931z"/></g><text x="0" y="115" fill="#000000" font-size="5px" font-weight="bold" font-family="'Helvetica Neue', Helvetica, Arial-Unicode, Arial, Sans-serif">Created by Krish</text><text x="0" y="120" fill="#000000" font-size="5px" font-weight="bold" font-family="'Helvetica Neue', Helvetica, Arial-Unicode, Arial, Sans-serif">from the Noun Project</text></svg>