<?xml version="1.0" standalone="no"?>
<!DOCTYPE svg PUBLIC "-//W3C//DTD SVG 20010904//EN"
 "http://www.w3.org/TR/2001/REC-SVG-20010904/DTD/svg10.dtd">
<svg version="1.0" xmlns="http://www.w3.org/2000/svg"
 width="50.000000pt" height="220.000000pt" viewBox="0 0 102.000000 86.000000"
 preserveAspectRatio="xMidYMid meet">
<metadata>
Created by potrace 1.15, written by Peter Selinger 2001-2017
</metadata>
<g transform="translate(0.000000,86.000000) scale(0.100000,-0.100000)"
fill="#DD476D" stroke="none">
<path d="M322 646 c-15 -19 -30 -25 -68 -28 -36 -2 -49 -7 -49 -18 0 -11 13
-16 49 -18 38 -3 53 -9 68 -28 26 -33 76 -33 108 1 23 24 27 25 194 27 144 3
171 5 171 18 0 13 -27 15 -174 18 -171 2 -174 3 -193 27 -27 34 -79 34 -106 1z"/>
<path d="M590 460 l-28 -30 -182 0 c-141 0 -181 -3 -178 -12 4 -10 52 -14 187
-16 l182 -2 23 -27 c30 -35 82 -35 111 1 13 15 32 26 54 28 48 4 53 28 6 28
-28 0 -42 7 -62 30 -17 21 -34 30 -55 30 -20 0 -39 -10 -58 -30z"/>
<path d="M427 260 c-25 -30 -27 -30 -127 -30 -77 0 -101 -3 -98 -12 3 -9 35
-14 104 -16 90 -2 101 -5 122 -27 31 -34 83 -34 110 0 18 23 25 24 137 27 84
2 120 7 123 16 3 9 -25 12 -115 12 l-119 0 -22 30 c-17 23 -30 30 -56 30 -26
0 -41 -8 -59 -30z"/>
</g>
</svg>
