<?xml version="1.0" encoding="utf-8"?>
<!-- Generator: Adobe Illustrator 19.1.1, SVG Export Plug-In . SVG Version: 6.00 Build 0)  -->
<svg version="1.1" id="Calque_1" xmlns="http://www.w3.org/2000/svg" xmlns:xlink="http://www.w3.org/1999/xlink" x="0px" y="0px"
	 viewBox="0 0 375 44" style="enable-background:new 0 0 375 44;" xml:space="preserve">
<style type="text/css">
	.st1{fill:#FFFFFF;stroke:#000000;stroke-width:0.25;stroke-miterlimit:10;}
</style>
<g>
	<path class="st1" d="M365.9,39.3c0,0,0-32.2,0-21.9c0,0.3,0-10.9-11.3-11.3c0,0-4,0-3.6,0c-7.5,0-6.6,7.9-6.6,8.1
		c-0.1,13-9.6,22-22.2,22.2c-11.2,0.2-21.2-8.3-22.2-22.2c-0.4-4.7,1-8.1-6.8-8.1c0.4,0-272.8,0-272.8,0c-6-0.3-10.9,4.4-11.3,11.3
		v21.9H365.9z"/>
</g>
</svg>
