<?xml version="1.0" encoding="utf-8"?>
<!-- Generator: Adobe Illustrator 19.1.1, SVG Export Plug-In . SVG Version: 6.00 Build 0)  -->
<svg version="1.1" id="Calque_1" xmlns="http://www.w3.org/2000/svg" xmlns:xlink="http://www.w3.org/1999/xlink" x="0px" y="0px"
	 viewBox="0 0 375 68.5" style="enable-background:new 0 0 375 68.5;" xml:space="preserve">
<style type="text/css">
	.st1{fill:#FFFFFF;stroke:#000000;stroke-width:0.25;stroke-miterlimit:10;}
</style>
<g>
	<path class="st1" d="M9.1,9.5v35.4c0,2.6,0.9,5.1,2.6,7.2c1.4,1.7,3.6,3.7,5.5,5.3c2,1.8,4.7,2.7,7.4,2.7h119.9
		c9.7-0.1,8.5-11.9,8.5-12.2c-0.4-13.1,12.6-33.5,34.1-34.1c18.8-0.6,33.5,21,34.1,34.1c0,0.3-1.3,12.2,8.4,12.2
		c30.1,0.2,120.6,0,120.6,0c2.9,0,5.8-1.1,7.9-3.2c1.5-1.5,3.3-3.3,4.8-4.8c2.1-2.1,3.2-4.9,3.2-7.9V9.5H9.1z"/>
</g>
</svg>
