<?xml version="1.0" encoding="utf-8"?>
<!-- Generator: Adobe Illustrator 19.1.1, SVG Export Plug-In . SVG Version: 6.00 Build 0)  -->
<svg version="1.1" id="Calque_1" xmlns="http://www.w3.org/2000/svg" xmlns:xlink="http://www.w3.org/1999/xlink" x="0px" y="0px"
	 viewBox="0 0 63 67" style="enable-background:new 0 0 63 67;" xml:space="preserve">
<style type="text/css">
	.st0{opacity:0.2;fill:#00385A;}
	.st1{opacity:0.502;fill:#00385A;}
	.st2{fill:#00385A;}
</style>
<g>
	<path class="st0" d="M33.1,16.7c1.3,0,2.6,0.1,3.8,0.4s2.5,0.6,3.7,1.1s2.3,1.1,3.4,1.8c1.1,0.7,2.1,1.5,3,2.4s1.7,1.9,2.4,3
		c0.7,1.1,1.3,2.2,1.8,3.4c0.5,1.2,0.9,2.4,1.1,3.7c0.3,1.3,0.4,2.5,0.4,3.8c0,1.3-0.1,2.6-0.4,3.8c-0.3,1.3-0.6,2.5-1.1,3.7
		c-0.5,1.2-1.1,2.3-1.8,3.4c-0.7,1.1-1.5,2.1-2.4,3c-0.9,0.9-1.9,1.7-3,2.4s-2.2,1.3-3.4,1.8c-1.2,0.5-2.4,0.9-3.7,1.1
		s-2.5,0.4-3.8,0.4c-1.3,0-2.6-0.1-3.8-0.4c-1.3-0.3-2.5-0.6-3.7-1.1c-1.2-0.5-2.3-1.1-3.4-1.8s-2.1-1.5-3-2.4
		c-0.9-0.9-1.7-1.9-2.4-3c-0.7-1.1-1.3-2.2-1.8-3.4c-0.5-1.2-0.9-2.4-1.1-3.7c-0.3-1.3-0.4-2.5-0.4-3.8c0-1.3,0.1-2.6,0.4-3.8
		c0.3-1.3,0.6-2.5,1.1-3.7c0.5-1.2,1.1-2.3,1.8-3.4c0.7-1.1,1.5-2.1,2.4-3c0.9-0.9,1.9-1.7,3-2.4c1.1-0.7,2.2-1.3,3.4-1.8
		s2.4-0.9,3.7-1.1C30.6,16.8,31.8,16.7,33.1,16.7z"/>
	<path class="st1" d="M33.1,27c1.2,0,2.4,0.2,3.5,0.7c1.1,0.5,2.1,1.1,3,2c0.9,0.9,1.5,1.9,2,3c0.5,1.1,0.7,2.3,0.7,3.5
		c0,1.2-0.2,2.4-0.7,3.5c-0.5,1.1-1.1,2.1-2,3c-0.9,0.9-1.9,1.5-3,2c-1.1,0.5-2.3,0.7-3.5,0.7s-2.4-0.2-3.5-0.7
		c-1.1-0.5-2.1-1.1-3-2s-1.5-1.9-2-3c-0.5-1.1-0.7-2.3-0.7-3.5c0-1.2,0.2-2.4,0.7-3.5c0.5-1.1,1.1-2.1,2-3c0.9-0.9,1.9-1.5,3-2
		C30.7,27.3,31.9,27,33.1,27z"/>
	<path class="st2" d="M33.1,32.4c1.1,0,2,0.4,2.8,1.1c0.8,0.8,1.1,1.7,1.1,2.8s-0.4,2-1.1,2.8c-0.8,0.8-1.7,1.1-2.8,1.1
		c-1.1,0-2-0.4-2.8-1.1s-1.1-1.7-1.1-2.8s0.4-2,1.1-2.8S32,32.4,33.1,32.4z"/>
</g>
</svg>
