<?xml version="1.0" encoding="utf-8"?>
<!-- Generator: Adobe Illustrator 23.0.1, SVG Export Plug-In . SVG Version: 6.00 Build 0)  -->
<svg version="1.1" id="Calque_1" xmlns="http://www.w3.org/2000/svg" xmlns:xlink="http://www.w3.org/1999/xlink" x="0px" y="0px"
	 viewBox="0 0 31.1 33.8" style="enable-background:new 0 0 31.1 33.8;" xml:space="preserve">
<style type="text/css">
	.st0{fill:#EF7C58;}
	.st1{fill:#FFFFFF;}
	.st2{fill:#DD476D;}
	.st3{clip-path:url(#SVGID_2_);}
	.st4{fill:none;stroke:#DD476D;stroke-width:0.5;stroke-miterlimit:10;}
	.st5{fill:#FFFFFF;stroke:#FFFFFF;stroke-miterlimit:10;}
	.st6{fill:#DD476D;stroke:#FFFFFF;stroke-width:0.5;stroke-miterlimit:10;}
	.st7{clip-path:url(#SVGID_4_);}
	.st8{fill:none;stroke:#FFFFFF;stroke-width:0.5;stroke-miterlimit:10;}
</style>
<g>
	<path class="st0" d="M-182.5-56.6c-4.2-3.6-8.9-7.7-13.8-11.6c-9.7-7.8-10.7-22.7-2.2-31.8c8.3-8.8,23.9-8.8,32,0.1
		c8.4,9.2,7.2,24-2.4,31.8C-173.7-64.2-178.4-60.1-182.5-56.6z M-167-85.4c-0.1-8.5-7.1-15.6-15.4-15.7c-8.6-0.1-15.8,7.4-15.7,16.3
		c0.1,8.6,6.9,15.4,15.4,15.5C-173.7-69.3-166.8-76.3-167-85.4z"/>
	<g>
		<circle class="st1" cx="-182.5" cy="-85.4" r="16"/>
	</g>
</g>
<g>
	<g>
		<path class="st2" d="M-73.5,28.3l-7.2-7.2c3.7-4.7,3-11.5-1.7-15.3s-11.5-3-15.3,1.7s-3,11.5,1.7,15.3c1.9,1.5,4.3,2.4,6.7,2.4
			c2.5,0,4.9-0.9,6.8-2.4l7.2,7.2c0.2,0.2,0.5,0.3,0.8,0.3c0.3,0,0.6-0.1,0.9-0.3C-73.1,29.6-73.1,28.8-73.5,28.3z M-89.3,22.8
			c-4.7,0-8.5-3.8-8.5-8.5s3.8-8.5,8.5-8.5s8.5,3.8,8.5,8.5l0,0C-80.8,19-84.6,22.8-89.3,22.8z"/>
	</g>
</g>
<g>
	<circle class="st2" cx="-17.1" cy="-77.4" r="28.2"/>
	<g>
		<g id="pdJDaY.tif_38_">
			<g>
				<path class="st1" d="M-18.4-76.2c0,0.4,0,0.7,0,1c0,2,0,4,0,5.9c0,1,0.4,1.5,1.2,1.4c0.7,0,1.1-0.5,1.1-1.4c0-2,0-4,0-6
					c0-0.3,0-0.6,0-0.9c2.3,0,4.5,0,6.7,0c1.1,0,1.6-0.4,1.6-1.2c0-0.8-0.5-1.2-1.7-1.2c-1.9,0-3.8,0-5.8,0c-0.3,0-0.6,0-0.9,0
					c0-2.4,0-4.7,0-7c0-0.8-0.5-1.3-1.2-1.3c-0.7,0-1.2,0.5-1.2,1.3c0,1.7,0,3.5,0,5.2c0,0.6,0,1.2,0,1.9c-0.4,0-0.7,0-0.9,0
					c-1.9,0-3.7,0-5.6,0c-0.2,0-0.4,0-0.6,0c-0.8,0-1.2,0.5-1.3,1.2c0,0.7,0.5,1.2,1.3,1.2C-23.1-76.2-20.8-76.2-18.4-76.2z"/>
				<path class="st1" d="M-18.4-76.2c-2.5,0-4.8,0-7.1,0c-0.8,0-1.3-0.5-1.3-1.2c0-0.7,0.5-1.1,1.3-1.2c0.2,0,0.4,0,0.6,0
					c1.9,0,3.7,0,5.6,0c0.3,0,0.5,0,0.9,0c0-0.7,0-1.3,0-1.9c0-1.7,0-3.5,0-5.2c0-0.8,0.5-1.3,1.2-1.3c0.7,0,1.2,0.5,1.2,1.3
					c0,2.3,0,4.6,0,7c0.3,0,0.6,0,0.9,0c1.9,0,3.8,0,5.8,0c1.2,0,1.7,0.4,1.7,1.2c0,0.8-0.5,1.2-1.6,1.2c-2.2,0-4.4,0-6.7,0
					c0,0.3,0,0.6,0,0.9c0,2,0,4,0,6c0,0.9-0.4,1.4-1.1,1.4c-0.8,0-1.2-0.5-1.2-1.4c0-2,0-4,0-5.9C-18.4-75.5-18.4-75.8-18.4-76.2z"
					/>
			</g>
		</g>
	</g>
</g>
<g>
	<g>
		<g>
			<defs>
				<circle id="SVGID_1_" cx="15.6" cy="16.9" r="14.7"/>
			</defs>
			<use xlink:href="#SVGID_1_"  style="overflow:visible;fill:#DD476D;"/>
			<clipPath id="SVGID_2_">
				<use xlink:href="#SVGID_1_"  style="overflow:visible;"/>
			</clipPath>
			<g class="st3">
				<path class="st1" d="M26.4,25.5c-0.6-1.2-1.6-1.7-2.7-2.1c-0.8-0.2-2.3-0.6-3.7-1c-1.1-0.4-2.1-0.8-2.4-1.2
					c-0.1-0.2-0.2-0.3-0.3-0.5c0.2-0.2,0.5-0.5,0.7-0.5c1.2-0.9,1.7-2.4,2-3.8c0.3-1.4,0.5-2.8,0.5-4.1c0-1.2-0.3-2.4-1.2-3.2
					c-1.1-1-2.6-1.3-3.8-1.3c0,0,0,0-0.1,0l0,0l0,0c-0.1,0-0.1,0-0.1,0c-1.3,0-2.8,0.4-3.8,1.3c-1,0.8-1.2,2-1.2,3.2
					c0,1.4,0.2,2.8,0.5,4.1c0.3,1.4,0.9,2.9,2,3.8c0.2,0.1,0.5,0.3,0.7,0.5c-0.1,0.2-0.2,0.4-0.3,0.5c-0.3,0.5-1.3,0.9-2.4,1.2
					c-1.4,0.5-2.9,0.8-3.7,1.1c-1.1,0.4-2.1,0.9-2.7,2.1c-0.2,0.3-0.8,6-0.7,6h23.5C27.3,31.5,26.6,25.8,26.4,25.5z"/>
			</g>
		</g>
	</g>
	<circle class="st4" cx="15.6" cy="16.9" r="14.7"/>
</g>
<g>
	<circle class="st2" cx="-99.3" cy="-77.4" r="28.2"/>
	<g>
		<g>
			<path class="st5" d="M-91.3-70.5l-4.4-4.4c2.3-2.9,1.8-7-1-9.3s-7-1.8-9.3,1c-2.3,2.9-1.8,7,1,9.3c1.2,0.9,2.6,1.4,4.1,1.5
				c1.5,0,3-0.5,4.1-1.5l4.4,4.4c0.1,0.1,0.3,0.2,0.5,0.2c0.2,0,0.4-0.1,0.5-0.2C-91.1-69.8-91.1-70.2-91.3-70.5z M-100.9-73.9
				c-2.9,0-5.2-2.3-5.2-5.2c0-2.9,2.3-5.2,5.2-5.2s5.2,2.3,5.2,5.2l0,0C-95.8-76.2-98.1-73.9-100.9-73.9z"/>
		</g>
	</g>
</g>
<g>
	<g id="pdJDaY.tif_40_">
		<g>
			<path class="st6" d="M-37,18.4c0,0.5,0,0.9,0,1.2c0,2.5,0,4.9,0,7.4c0,1.2,0.6,1.8,1.5,1.8c0.9,0,1.4-0.6,1.4-1.8
				c0-2.5,0-5,0-7.5c0-0.4,0-0.7,0-1.1c2.9,0,5.6,0,8.4,0c1.4,0,2-0.5,2-1.5c0-1-0.6-1.4-2.1-1.4c-2.4,0-4.8,0-7.2,0
				c-0.4,0-0.7,0-1.2,0c0-3,0-5.9,0-8.7c0-1-0.6-1.6-1.5-1.6c-0.9,0-1.5,0.6-1.5,1.6c0,2.1,0,4.3,0,6.4c0,0.7,0,1.5,0,2.3
				c-0.5,0-0.8,0-1.2,0c-2.3,0-4.6,0-6.9,0c-0.2,0-0.5,0-0.7,0c-1,0-1.5,0.6-1.6,1.4c0,0.9,0.6,1.5,1.6,1.5
				C-42.9,18.4-40.1,18.4-37,18.4z"/>
			<path class="st6" d="M-37,18.4c-3,0-5.9,0-8.8,0c-1,0-1.6-0.6-1.6-1.5c0-0.9,0.6-1.4,1.6-1.4c0.2,0,0.5,0,0.7,0
				c2.3,0,4.6,0,6.9,0c0.3,0,0.7,0,1.2,0c0-0.8,0-1.6,0-2.3c0-2.1,0-4.3,0-6.4c0-1,0.6-1.6,1.5-1.6c0.9,0,1.5,0.6,1.5,1.6
				c0,2.9,0,5.7,0,8.7c0.4,0,0.8,0,1.2,0c2.4,0,4.8,0,7.2,0c1.4,0,2.1,0.4,2.1,1.4c0,1-0.6,1.5-2,1.5c-2.7,0-5.5,0-8.4,0
				c0,0.4,0,0.8,0,1.1c0,2.5,0,5,0,7.5c0,1.2-0.5,1.8-1.4,1.8c-1,0-1.5-0.6-1.5-1.8c0-2.5,0-4.9,0-7.4C-37,19.2-37,18.9-37,18.4z"/>
		</g>
	</g>
</g>
<circle class="st2" cx="65.1" cy="-77.4" r="28.2"/>
<g>
	<g>
		<g>
			<defs>
				<circle id="SVGID_3_" cx="65.1" cy="-77.4" r="10.2"/>
			</defs>
			<use xlink:href="#SVGID_3_"  style="overflow:visible;fill:#FFFFFF;"/>
			<clipPath id="SVGID_4_">
				<use xlink:href="#SVGID_3_"  style="overflow:visible;"/>
			</clipPath>
			<g class="st7">
				<path class="st2" d="M72.6-71.4c-0.4-0.8-1.1-1.2-1.9-1.5c-0.5-0.2-1.6-0.4-2.6-0.7c-0.8-0.3-1.5-0.6-1.7-0.8
					c-0.1-0.1-0.2-0.2-0.2-0.4c0.2-0.2,0.4-0.3,0.5-0.4c0.8-0.6,1.2-1.7,1.4-2.6c0.2-0.9,0.4-1.9,0.4-2.9c0-0.8-0.2-1.7-0.8-2.2
					c-0.8-0.7-1.8-0.9-2.7-0.9c0,0,0,0-0.1,0l0,0l0,0c-0.1,0-0.1,0-0.1,0c-0.9,0-1.9,0.3-2.7,0.9c-0.7,0.6-0.8,1.4-0.8,2.2
					c0,0.9,0.2,1.9,0.4,2.9c0.2,0.9,0.6,2,1.4,2.6c0.1,0.1,0.3,0.2,0.5,0.4c-0.1,0.2-0.2,0.3-0.2,0.4c-0.2,0.3-0.9,0.6-1.7,0.8
					c-0.9,0.3-2,0.6-2.6,0.7c-0.8,0.3-1.5,0.6-1.9,1.5c-0.1,0.2-0.6,4.2-0.5,4.2h16.3C73.2-67.3,72.7-71.2,72.6-71.4z"/>
			</g>
		</g>
	</g>
	<circle class="st8" cx="65.1" cy="-77.4" r="10.2"/>
</g>
</svg>
