<?xml version="1.0" standalone="no"?>
<!DOCTYPE svg PUBLIC "-//W3C//DTD SVG 20010904//EN"
 "http://www.w3.org/TR/2001/REC-SVG-20010904/DTD/svg10.dtd">
<svg version="1.0" xmlns="http://www.w3.org/2000/svg"
 width="50.000000pt" height="220.000000pt" viewBox="0 0 181.000000 145.000000"
 preserveAspectRatio="xMidYMid meet">
<metadata>
Created by potrace 1.15, written by Peter Selinger 2001-2017
</metadata>
<g transform="translate(0.000000,145.000000) scale(0.100000,-0.100000)"
fill="#DD476D" stroke="none">
<path d="M761 1264 c-236 -63 -393 -254 -408 -494 -17 -269 167 -510 432 -565
88 -18 132 -18 217 0 190 40 341 174 406 359 19 56 25 92 25 166 1 157 -41
265 -148 379 -135 143 -342 204 -524 155z m239 -224 c59 -30 74 -70 68 -181
-7 -113 -35 -196 -80 -234 -29 -24 -30 -27 -14 -44 10 -11 50 -29 89 -41 40
-12 94 -29 122 -38 47 -14 105 -59 105 -80 0 -18 -111 -112 -161 -138 -194
-98 -435 -62 -588 87 -48 48 -50 51 -36 73 20 31 60 50 181 86 57 17 109 39
119 50 17 19 17 20 -9 41 -40 31 -64 87 -82 190 -21 124 -7 183 54 221 66 40
161 44 232 8z"/>
</g>
</svg>
