<?xml version="1.0" encoding="utf-8"?>
<!-- Generator: Adobe Illustrator 19.1.1, SVG Export Plug-In . SVG Version: 6.00 Build 0)  -->
<svg version="1.1" id="Calque_1" xmlns="http://www.w3.org/2000/svg" xmlns:xlink="http://www.w3.org/1999/xlink" x="0px" y="0px"
	 viewBox="0 0 16.3 15.6" style="enable-background:new 0 0 16.3 15.6;" xml:space="preserve">
<style type="text/css">
	.st10{fill:#D12F5B;}
</style>
<path class="st10" d="M12.5,9.7c-0.1,0.1-0.1,0.2-0.1,0.3l0.6,3.7c0.1,0.3-0.1,0.7-0.4,0.9c-0.3,0.2-0.7,0.2-1,0.1l-3.3-1.7
	c-0.1-0.1-0.2-0.1-0.3,0l-3.3,1.7c-0.1,0.1-0.3,0.1-0.4,0.1c-0.2,0-0.4-0.1-0.6-0.2c-0.3-0.2-0.4-0.6-0.4-0.9L4,10
	c0-0.1,0-0.2-0.1-0.3L1.2,7.1c-0.3-0.3-0.3-0.6-0.2-1c0.1-0.3,0.4-0.6,0.8-0.6l3.7-0.6c0.1,0,0.2-0.1,0.3-0.2l1.7-3.3
	C7.5,1,7.8,0.8,8.2,0.8C8.5,0.8,8.9,1,9,1.3l1.7,3.3c0.1,0.1,0.1,0.2,0.3,0.2l3.7,0.5C15,5.5,15.3,5.7,15.4,6c0.1,0.3,0,0.7-0.2,1
	L12.5,9.7z"/>
</svg>
