<?xml version="1.0" encoding="utf-8"?>
<!-- Generator: Adobe Illustrator 19.1.1, SVG Export Plug-In . SVG Version: 6.00 Build 0)  -->
<svg version="1.1" id="Calque_1" xmlns="http://www.w3.org/2000/svg" xmlns:xlink="http://www.w3.org/1999/xlink" x="0px" y="0px"
	 viewBox="0 0 16.3 15.6" style="enable-background:new 0 0 16.3 15.6;" xml:space="preserve">
<style type="text/css">
	.st0{fill:rgb(24, 21, 22);}
</style>
<path class="st0" d="M12.5,9.9c-0.1,0.1-0.1,0.2-0.1,0.3l0.6,3.7c0.1,0.3-0.1,0.7-0.4,0.9c-0.3,0.2-0.7,0.2-1,0.1l-3.3-1.7
	c-0.1-0.1-0.2-0.1-0.3,0l-3.3,1.7C4.5,15,4.4,15,4.2,15C4,15,3.8,15,3.7,14.8c-0.3-0.2-0.4-0.6-0.4-0.9l0.6-3.7c0-0.1,0-0.2-0.1-0.3
	L1.1,7.3C0.9,7,0.8,6.7,0.9,6.3C1,6,1.3,5.7,1.7,5.7l3.7-0.6c0.1,0,0.2-0.1,0.3-0.2l1.7-3.3c0.2-0.3,0.5-0.5,0.8-0.5
	c0.4,0,0.7,0.2,0.8,0.5l1.7,3.3c0.1,0.1,0.1,0.2,0.3,0.2l3.7,0.5c0.4,0.1,0.7,0.3,0.8,0.6c0.1,0.3,0,0.7-0.2,1L12.5,9.9z"/>
</svg>
