<svg xmlns="http://www.w3.org/2000/svg" xmlns:xlink="http://www.w3.org/1999/xlink" version="1.1" x="0px" y="0px" viewBox="0 0 100 125" enable-background="new 0 0 100 100" xml:space="preserve"><path fill="#000000" d="M50.151,95.164l7.46-12.454c0.32-0.072,0.645-0.134,0.963-0.217c11.699-3.041,20.857-12.199,23.9-23.899  c0.082-0.318,0.145-0.642,0.217-0.962l12.459-7.468l-12.459-7.468c-0.072-0.32-0.135-0.644-0.217-0.962  c-3.043-11.698-12.199-20.855-23.896-23.898c-0.318-0.083-0.643-0.145-0.963-0.218L50.151,5.164l-7.464,12.454  c-0.321,0.073-0.645,0.135-0.963,0.218c-11.697,3.043-20.854,12.2-23.896,23.898c-0.083,0.318-0.145,0.642-0.218,0.962L5.151,50.164  l12.459,7.468c0.073,0.32,0.135,0.644,0.218,0.962c3.043,11.7,12.201,20.858,23.901,23.899c0.317,0.083,0.641,0.145,0.961,0.217  L50.151,95.164z M19.763,58.09c-1.342-5.154-1.342-10.697,0-15.852c2.86-10.998,11.469-19.606,22.465-22.467  c2.578-0.67,5.244-1.01,7.923-1.01c2.679,0,5.345,0.34,7.923,1.01C69.07,22.632,77.68,31.24,80.539,42.238  c0.67,2.577,1.01,5.244,1.01,7.926s-0.34,5.349-1.01,7.926c-2.861,11-11.471,19.609-22.469,22.468  c-2.574,0.669-5.238,1.009-7.919,1.009c-2.68,0-5.345-0.34-7.919-1.009C31.233,77.699,22.624,69.09,19.763,58.09z"/><path fill="#000000" d="M70.951,50.164c0-11.468-9.33-20.798-20.8-20.798c-11.47,0-20.801,9.33-20.801,20.798  s9.331,20.798,20.801,20.798C61.621,70.962,70.951,61.632,70.951,50.164z M31.35,50.164c0-10.365,8.435-18.798,18.801-18.798  c10.367,0,18.8,8.433,18.8,18.798s-8.434,18.798-18.8,18.798C39.785,68.962,31.35,60.529,31.35,50.164z"/><text x="0" y="115" fill="#000000" font-size="5px" font-weight="bold" font-family="'Helvetica Neue', Helvetica, Arial-Unicode, Arial, Sans-serif">Created by Krish</text><text x="0" y="120" fill="#000000" font-size="5px" font-weight="bold" font-family="'Helvetica Neue', Helvetica, Arial-Unicode, Arial, Sans-serif">from the Noun Project</text></svg>